<mxfile host="app.diagrams.net" agent="Mozilla/5.0 (Macintosh; Intel Mac OS X 10_15_7) AppleWebKit/537.36 (KHTML, like Gecko) Chrome/136.0.0.0 Safari/537.36" version="27.0.9">
  <diagram name="Page-1" id="CBJdgLjMIpa7Q31yUuGV">
    <mxGraphModel dx="992" dy="734" grid="1" gridSize="10" guides="1" tooltips="1" connect="1" arrows="1" fold="1" page="1" pageScale="1" pageWidth="850" pageHeight="1100" math="0" shadow="0">
      <root>
        <mxCell id="0" />
        <mxCell id="1" parent="0" />
        <mxCell id="6GXhxEvcMHHpix3nZXK5-1" value="MFAenabling&amp;nbsp; Process" style="swimlane;childLayout=stackLayout;resizeParent=1;resizeParentMax=0;horizontal=1;startSize=20;horizontalStack=0;html=1;" vertex="1" parent="1">
          <mxGeometry x="220" y="200" width="930" height="700" as="geometry" />
        </mxCell>
        <mxCell id="6GXhxEvcMHHpix3nZXK5-2" value="Client" style="swimlane;startSize=20;horizontal=0;html=1;" vertex="1" parent="6GXhxEvcMHHpix3nZXK5-1">
          <mxGeometry y="20" width="930" height="350" as="geometry" />
        </mxCell>
        <mxCell id="6GXhxEvcMHHpix3nZXK5-52" style="edgeStyle=orthogonalEdgeStyle;rounded=0;orthogonalLoop=1;jettySize=auto;html=1;exitX=0.5;exitY=1;exitDx=0;exitDy=0;entryX=0.25;entryY=0;entryDx=0;entryDy=0;" edge="1" parent="6GXhxEvcMHHpix3nZXK5-2" source="6GXhxEvcMHHpix3nZXK5-50" target="6GXhxEvcMHHpix3nZXK5-51">
          <mxGeometry relative="1" as="geometry" />
        </mxCell>
        <mxCell id="6GXhxEvcMHHpix3nZXK5-50" value="&lt;font&gt;Start&lt;/font&gt;" style="ellipse;whiteSpace=wrap;html=1;" vertex="1" parent="6GXhxEvcMHHpix3nZXK5-2">
          <mxGeometry x="50" y="14" width="99" height="66" as="geometry" />
        </mxCell>
        <mxCell id="6GXhxEvcMHHpix3nZXK5-55" style="edgeStyle=orthogonalEdgeStyle;rounded=0;orthogonalLoop=1;jettySize=auto;html=1;exitX=1;exitY=0.5;exitDx=0;exitDy=0;entryX=0;entryY=0.5;entryDx=0;entryDy=0;" edge="1" parent="6GXhxEvcMHHpix3nZXK5-2" source="6GXhxEvcMHHpix3nZXK5-51" target="6GXhxEvcMHHpix3nZXK5-53">
          <mxGeometry relative="1" as="geometry" />
        </mxCell>
        <mxCell id="6GXhxEvcMHHpix3nZXK5-51" value="Click &quot;Manage&quot; at authenticator tab" style="rounded=0;whiteSpace=wrap;html=1;" vertex="1" parent="6GXhxEvcMHHpix3nZXK5-2">
          <mxGeometry x="50" y="106" width="120" height="60" as="geometry" />
        </mxCell>
        <mxCell id="6GXhxEvcMHHpix3nZXK5-53" value="Request URL to display as QR code" style="rounded=0;whiteSpace=wrap;html=1;" vertex="1" parent="6GXhxEvcMHHpix3nZXK5-2">
          <mxGeometry x="205" y="106" width="120" height="60" as="geometry" />
        </mxCell>
        <mxCell id="6GXhxEvcMHHpix3nZXK5-64" style="edgeStyle=orthogonalEdgeStyle;rounded=0;orthogonalLoop=1;jettySize=auto;html=1;exitX=1;exitY=0.5;exitDx=0;exitDy=0;entryX=0;entryY=0.5;entryDx=0;entryDy=0;" edge="1" parent="6GXhxEvcMHHpix3nZXK5-2" source="6GXhxEvcMHHpix3nZXK5-60" target="6GXhxEvcMHHpix3nZXK5-62">
          <mxGeometry relative="1" as="geometry" />
        </mxCell>
        <mxCell id="6GXhxEvcMHHpix3nZXK5-60" value="Display QR code" style="rounded=0;whiteSpace=wrap;html=1;" vertex="1" parent="6GXhxEvcMHHpix3nZXK5-2">
          <mxGeometry x="205" y="190" width="85" height="60" as="geometry" />
        </mxCell>
        <mxCell id="6GXhxEvcMHHpix3nZXK5-62" value="User setup at the authenticator app and verify with OTP code" style="shape=parallelogram;perimeter=parallelogramPerimeter;whiteSpace=wrap;html=1;fixedSize=1;" vertex="1" parent="6GXhxEvcMHHpix3nZXK5-2">
          <mxGeometry x="385" y="170" width="160" height="80" as="geometry" />
        </mxCell>
        <mxCell id="6GXhxEvcMHHpix3nZXK5-74" value="User can chhose rather to go back or stay" style="shape=parallelogram;perimeter=parallelogramPerimeter;whiteSpace=wrap;html=1;fixedSize=1;" vertex="1" parent="6GXhxEvcMHHpix3nZXK5-2">
          <mxGeometry x="720" y="190" width="120" height="60" as="geometry" />
        </mxCell>
        <mxCell id="6GXhxEvcMHHpix3nZXK5-84" value="&lt;ul&gt;&lt;li&gt;Once the user scan the QR code the user have to fill the 6 digits of what the authenticator is showing&lt;/li&gt;&lt;li&gt;Vefrying with TOTP work the same as email OTP but speakeasy do the work&lt;/li&gt;&lt;/ul&gt;" style="text;html=1;align=left;verticalAlign=middle;whiteSpace=wrap;rounded=0;" vertex="1" parent="6GXhxEvcMHHpix3nZXK5-2">
          <mxGeometry x="420" y="10" width="470" height="50" as="geometry" />
        </mxCell>
        <mxCell id="6GXhxEvcMHHpix3nZXK5-11" value="Server" style="swimlane;startSize=20;horizontal=0;html=1;" vertex="1" parent="6GXhxEvcMHHpix3nZXK5-1">
          <mxGeometry y="370" width="930" height="330" as="geometry" />
        </mxCell>
        <mxCell id="6GXhxEvcMHHpix3nZXK5-12" value="Middleware" style="swimlane;startSize=20;horizontal=0;html=1;" vertex="1" parent="6GXhxEvcMHHpix3nZXK5-11">
          <mxGeometry x="20" width="880" height="130" as="geometry" />
        </mxCell>
        <mxCell id="6GXhxEvcMHHpix3nZXK5-13" style="edgeStyle=orthogonalEdgeStyle;rounded=0;orthogonalLoop=1;jettySize=auto;html=1;exitX=1;exitY=0.5;exitDx=0;exitDy=0;entryX=0;entryY=0.5;entryDx=0;entryDy=0;endArrow=none;startFill=0;" edge="1" parent="6GXhxEvcMHHpix3nZXK5-12" source="6GXhxEvcMHHpix3nZXK5-14" target="6GXhxEvcMHHpix3nZXK5-17">
          <mxGeometry relative="1" as="geometry" />
        </mxCell>
        <mxCell id="6GXhxEvcMHHpix3nZXK5-14" value="Validate user authorization with&amp;nbsp;&lt;div&gt;access or refresh token&lt;/div&gt;" style="shape=process;whiteSpace=wrap;html=1;backgroundOutline=1;" vertex="1" parent="6GXhxEvcMHHpix3nZXK5-12">
          <mxGeometry x="30" y="20" width="320" height="90" as="geometry" />
        </mxCell>
        <mxCell id="6GXhxEvcMHHpix3nZXK5-15" style="edgeStyle=orthogonalEdgeStyle;rounded=0;orthogonalLoop=1;jettySize=auto;html=1;exitX=1;exitY=0.5;exitDx=0;exitDy=0;entryX=0;entryY=0.5;entryDx=0;entryDy=0;" edge="1" parent="6GXhxEvcMHHpix3nZXK5-12" source="6GXhxEvcMHHpix3nZXK5-17" target="6GXhxEvcMHHpix3nZXK5-18">
          <mxGeometry relative="1" as="geometry">
            <mxPoint x="660" y="65" as="targetPoint" />
          </mxGeometry>
        </mxCell>
        <mxCell id="6GXhxEvcMHHpix3nZXK5-16" value="No" style="edgeLabel;html=1;align=center;verticalAlign=middle;resizable=0;points=[];" vertex="1" connectable="0" parent="6GXhxEvcMHHpix3nZXK5-15">
          <mxGeometry x="-0.7436" relative="1" as="geometry">
            <mxPoint as="offset" />
          </mxGeometry>
        </mxCell>
        <mxCell id="6GXhxEvcMHHpix3nZXK5-17" value="authorized" style="rhombus;whiteSpace=wrap;html=1;" vertex="1" parent="6GXhxEvcMHHpix3nZXK5-12">
          <mxGeometry x="385" y="25" width="80" height="80" as="geometry" />
        </mxCell>
        <mxCell id="6GXhxEvcMHHpix3nZXK5-18" value="route to login page" style="rounded=0;whiteSpace=wrap;html=1;" vertex="1" parent="6GXhxEvcMHHpix3nZXK5-12">
          <mxGeometry x="660" y="35" width="120" height="60" as="geometry" />
        </mxCell>
        <mxCell id="6GXhxEvcMHHpix3nZXK5-54" value="speakeasy generate url&amp;nbsp;" style="rounded=0;whiteSpace=wrap;html=1;" vertex="1" parent="6GXhxEvcMHHpix3nZXK5-11">
          <mxGeometry x="205" y="160" width="120" height="60" as="geometry" />
        </mxCell>
        <mxCell id="6GXhxEvcMHHpix3nZXK5-58" value="yes" style="edgeStyle=orthogonalEdgeStyle;rounded=0;orthogonalLoop=1;jettySize=auto;html=1;exitX=0.5;exitY=1;exitDx=0;exitDy=0;entryX=1;entryY=0.5;entryDx=0;entryDy=0;" edge="1" parent="6GXhxEvcMHHpix3nZXK5-11" source="6GXhxEvcMHHpix3nZXK5-17" target="6GXhxEvcMHHpix3nZXK5-54">
          <mxGeometry relative="1" as="geometry" />
        </mxCell>
        <mxCell id="6GXhxEvcMHHpix3nZXK5-70" style="edgeStyle=orthogonalEdgeStyle;rounded=0;orthogonalLoop=1;jettySize=auto;html=1;exitX=1;exitY=0.5;exitDx=0;exitDy=0;entryX=0;entryY=0.5;entryDx=0;entryDy=0;" edge="1" parent="6GXhxEvcMHHpix3nZXK5-11" source="6GXhxEvcMHHpix3nZXK5-66" target="6GXhxEvcMHHpix3nZXK5-69">
          <mxGeometry relative="1" as="geometry" />
        </mxCell>
        <mxCell id="6GXhxEvcMHHpix3nZXK5-66" value="speakeasy verify the code" style="rounded=0;whiteSpace=wrap;html=1;" vertex="1" parent="6GXhxEvcMHHpix3nZXK5-11">
          <mxGeometry x="460" y="230" width="120" height="60" as="geometry" />
        </mxCell>
        <mxCell id="6GXhxEvcMHHpix3nZXK5-68" style="edgeStyle=orthogonalEdgeStyle;rounded=0;orthogonalLoop=1;jettySize=auto;html=1;exitX=1;exitY=1;exitDx=0;exitDy=0;entryX=0.5;entryY=0;entryDx=0;entryDy=0;" edge="1" parent="6GXhxEvcMHHpix3nZXK5-11" source="6GXhxEvcMHHpix3nZXK5-17" target="6GXhxEvcMHHpix3nZXK5-66">
          <mxGeometry relative="1" as="geometry" />
        </mxCell>
        <mxCell id="6GXhxEvcMHHpix3nZXK5-79" value="yes" style="edgeLabel;html=1;align=center;verticalAlign=middle;resizable=0;points=[];" vertex="1" connectable="0" parent="6GXhxEvcMHHpix3nZXK5-68">
          <mxGeometry x="-0.8122" y="2" relative="1" as="geometry">
            <mxPoint as="offset" />
          </mxGeometry>
        </mxCell>
        <mxCell id="6GXhxEvcMHHpix3nZXK5-69" value="Succeed" style="rhombus;whiteSpace=wrap;html=1;" vertex="1" parent="6GXhxEvcMHHpix3nZXK5-11">
          <mxGeometry x="630" y="220" width="80" height="80" as="geometry" />
        </mxCell>
        <mxCell id="6GXhxEvcMHHpix3nZXK5-57" style="edgeStyle=orthogonalEdgeStyle;rounded=0;orthogonalLoop=1;jettySize=auto;html=1;exitX=1;exitY=0.5;exitDx=0;exitDy=0;entryX=0.5;entryY=0;entryDx=0;entryDy=0;" edge="1" parent="6GXhxEvcMHHpix3nZXK5-1" source="6GXhxEvcMHHpix3nZXK5-53" target="6GXhxEvcMHHpix3nZXK5-17">
          <mxGeometry relative="1" as="geometry">
            <Array as="points">
              <mxPoint x="370" y="156" />
              <mxPoint x="370" y="340" />
              <mxPoint x="445" y="340" />
            </Array>
          </mxGeometry>
        </mxCell>
        <mxCell id="6GXhxEvcMHHpix3nZXK5-61" style="edgeStyle=orthogonalEdgeStyle;rounded=0;orthogonalLoop=1;jettySize=auto;html=1;exitX=0.5;exitY=0;exitDx=0;exitDy=0;entryX=0.5;entryY=1;entryDx=0;entryDy=0;" edge="1" parent="6GXhxEvcMHHpix3nZXK5-1" source="6GXhxEvcMHHpix3nZXK5-54" target="6GXhxEvcMHHpix3nZXK5-60">
          <mxGeometry relative="1" as="geometry" />
        </mxCell>
        <mxCell id="6GXhxEvcMHHpix3nZXK5-65" style="edgeStyle=orthogonalEdgeStyle;rounded=0;orthogonalLoop=1;jettySize=auto;html=1;exitX=1;exitY=0.5;exitDx=0;exitDy=0;entryX=1;entryY=0;entryDx=0;entryDy=0;" edge="1" parent="6GXhxEvcMHHpix3nZXK5-1" source="6GXhxEvcMHHpix3nZXK5-62" target="6GXhxEvcMHHpix3nZXK5-17">
          <mxGeometry relative="1" as="geometry" />
        </mxCell>
        <mxCell id="6GXhxEvcMHHpix3nZXK5-75" style="edgeStyle=orthogonalEdgeStyle;rounded=0;orthogonalLoop=1;jettySize=auto;html=1;exitX=1;exitY=0.5;exitDx=0;exitDy=0;entryX=0.5;entryY=1;entryDx=0;entryDy=0;" edge="1" parent="6GXhxEvcMHHpix3nZXK5-1" source="6GXhxEvcMHHpix3nZXK5-69" target="6GXhxEvcMHHpix3nZXK5-74">
          <mxGeometry relative="1" as="geometry">
            <Array as="points">
              <mxPoint x="830" y="630" />
              <mxPoint x="830" y="300" />
              <mxPoint x="780" y="300" />
            </Array>
          </mxGeometry>
        </mxCell>
        <mxCell id="6GXhxEvcMHHpix3nZXK5-78" value="Yes" style="edgeLabel;html=1;align=center;verticalAlign=middle;resizable=0;points=[];" vertex="1" connectable="0" parent="6GXhxEvcMHHpix3nZXK5-75">
          <mxGeometry x="-0.8706" y="2" relative="1" as="geometry">
            <mxPoint as="offset" />
          </mxGeometry>
        </mxCell>
        <mxCell id="6GXhxEvcMHHpix3nZXK5-76" style="edgeStyle=orthogonalEdgeStyle;rounded=0;orthogonalLoop=1;jettySize=auto;html=1;exitX=0.5;exitY=0;exitDx=0;exitDy=0;entryX=1;entryY=0.5;entryDx=0;entryDy=0;" edge="1" parent="6GXhxEvcMHHpix3nZXK5-1" source="6GXhxEvcMHHpix3nZXK5-69" target="6GXhxEvcMHHpix3nZXK5-62">
          <mxGeometry relative="1" as="geometry">
            <Array as="points">
              <mxPoint x="640" y="590" />
              <mxPoint x="640" y="430" />
              <mxPoint x="590" y="430" />
              <mxPoint x="590" y="230" />
            </Array>
          </mxGeometry>
        </mxCell>
        <mxCell id="6GXhxEvcMHHpix3nZXK5-77" value="No" style="edgeLabel;html=1;align=center;verticalAlign=middle;resizable=0;points=[];" vertex="1" connectable="0" parent="6GXhxEvcMHHpix3nZXK5-76">
          <mxGeometry x="-0.719" y="-1" relative="1" as="geometry">
            <mxPoint as="offset" />
          </mxGeometry>
        </mxCell>
        <mxCell id="6GXhxEvcMHHpix3nZXK5-31" value="DataBase " style="swimlane;" vertex="1" parent="1">
          <mxGeometry x="1120" y="200" width="200" height="700" as="geometry" />
        </mxCell>
        <mxCell id="6GXhxEvcMHHpix3nZXK5-80" value="" style="group" vertex="1" connectable="0" parent="6GXhxEvcMHHpix3nZXK5-31">
          <mxGeometry x="30" y="50" width="140" height="102" as="geometry" />
        </mxCell>
        <mxCell id="6GXhxEvcMHHpix3nZXK5-33" value="OtpSession" style="swimlane;fontStyle=0;childLayout=stackLayout;horizontal=1;startSize=26;fillColor=none;horizontalStack=0;resizeParent=1;resizeParentMax=0;resizeLast=0;collapsible=1;marginBottom=0;html=1;strokeColor=default;container=0;" vertex="1" parent="6GXhxEvcMHHpix3nZXK5-80">
          <mxGeometry width="140" height="102" as="geometry" />
        </mxCell>
        <mxCell id="6GXhxEvcMHHpix3nZXK5-34" value="userId" style="text;strokeColor=default;fillColor=none;align=left;verticalAlign=top;spacingLeft=4;spacingRight=4;overflow=hidden;rotatable=0;points=[[0,0.5],[1,0.5]];portConstraint=eastwest;whiteSpace=wrap;html=1;container=0;" vertex="1" parent="6GXhxEvcMHHpix3nZXK5-80">
          <mxGeometry y="26" width="140" height="24" as="geometry" />
        </mxCell>
        <mxCell id="6GXhxEvcMHHpix3nZXK5-35" value="type" style="text;strokeColor=default;fillColor=none;align=left;verticalAlign=top;spacingLeft=4;spacingRight=4;overflow=hidden;rotatable=0;points=[[0,0.5],[1,0.5]];portConstraint=eastwest;whiteSpace=wrap;html=1;container=0;" vertex="1" parent="6GXhxEvcMHHpix3nZXK5-80">
          <mxGeometry y="50" width="140" height="26" as="geometry" />
        </mxCell>
        <mxCell id="6GXhxEvcMHHpix3nZXK5-36" value="secret" style="text;strokeColor=default;fillColor=none;align=left;verticalAlign=top;spacingLeft=4;spacingRight=4;overflow=hidden;rotatable=0;points=[[0,0.5],[1,0.5]];portConstraint=eastwest;whiteSpace=wrap;html=1;container=0;" vertex="1" parent="6GXhxEvcMHHpix3nZXK5-80">
          <mxGeometry y="76" width="140" height="26" as="geometry" />
        </mxCell>
        <mxCell id="6GXhxEvcMHHpix3nZXK5-40" value="" style="group" vertex="1" connectable="0" parent="1">
          <mxGeometry x="1151" y="470" width="140" height="180" as="geometry" />
        </mxCell>
        <mxCell id="6GXhxEvcMHHpix3nZXK5-41" value="User" style="swimlane;fontStyle=0;childLayout=stackLayout;horizontal=1;startSize=26;fillColor=none;horizontalStack=0;resizeParent=1;resizeParentMax=0;resizeLast=0;collapsible=1;marginBottom=0;html=1;strokeColor=default;" vertex="1" parent="6GXhxEvcMHHpix3nZXK5-40">
          <mxGeometry width="140" height="102" as="geometry" />
        </mxCell>
        <mxCell id="6GXhxEvcMHHpix3nZXK5-42" value="username" style="text;strokeColor=default;fillColor=none;align=left;verticalAlign=top;spacingLeft=4;spacingRight=4;overflow=hidden;rotatable=0;points=[[0,0.5],[1,0.5]];portConstraint=eastwest;whiteSpace=wrap;html=1;" vertex="1" parent="6GXhxEvcMHHpix3nZXK5-41">
          <mxGeometry y="26" width="140" height="24" as="geometry" />
        </mxCell>
        <mxCell id="6GXhxEvcMHHpix3nZXK5-43" value="email" style="text;strokeColor=default;fillColor=none;align=left;verticalAlign=top;spacingLeft=4;spacingRight=4;overflow=hidden;rotatable=0;points=[[0,0.5],[1,0.5]];portConstraint=eastwest;whiteSpace=wrap;html=1;" vertex="1" parent="6GXhxEvcMHHpix3nZXK5-41">
          <mxGeometry y="50" width="140" height="26" as="geometry" />
        </mxCell>
        <mxCell id="6GXhxEvcMHHpix3nZXK5-44" value="passwordHash" style="text;strokeColor=default;fillColor=none;align=left;verticalAlign=top;spacingLeft=4;spacingRight=4;overflow=hidden;rotatable=0;points=[[0,0.5],[1,0.5]];portConstraint=eastwest;whiteSpace=wrap;html=1;" vertex="1" parent="6GXhxEvcMHHpix3nZXK5-41">
          <mxGeometry y="76" width="140" height="26" as="geometry" />
        </mxCell>
        <mxCell id="6GXhxEvcMHHpix3nZXK5-45" value="roles" style="text;strokeColor=default;fillColor=none;align=left;verticalAlign=top;spacingLeft=4;spacingRight=4;overflow=hidden;rotatable=0;points=[[0,0.5],[1,0.5]];portConstraint=eastwest;whiteSpace=wrap;html=1;" vertex="1" parent="6GXhxEvcMHHpix3nZXK5-40">
          <mxGeometry y="102" width="140" height="26" as="geometry" />
        </mxCell>
        <mxCell id="6GXhxEvcMHHpix3nZXK5-46" value="&lt;font style=&quot;font-size: 10px;&quot;&gt;isEmailVerified&lt;/font&gt;" style="text;strokeColor=default;fillColor=none;align=left;verticalAlign=top;spacingLeft=4;spacingRight=4;overflow=hidden;rotatable=0;points=[[0,0.5],[1,0.5]];portConstraint=eastwest;whiteSpace=wrap;html=1;" vertex="1" parent="6GXhxEvcMHHpix3nZXK5-40">
          <mxGeometry y="128" width="140" height="26" as="geometry" />
        </mxCell>
        <mxCell id="6GXhxEvcMHHpix3nZXK5-47" value="&lt;font style=&quot;font-size: 10px;&quot;&gt;mfaEnabled&amp;nbsp;&amp;nbsp;&lt;/font&gt;" style="text;strokeColor=default;fillColor=none;align=left;verticalAlign=top;spacingLeft=4;spacingRight=4;overflow=hidden;rotatable=0;points=[[0,0.5],[1,0.5]];portConstraint=eastwest;whiteSpace=wrap;html=1;" vertex="1" parent="6GXhxEvcMHHpix3nZXK5-40">
          <mxGeometry y="154" width="140" height="26" as="geometry" />
        </mxCell>
        <mxCell id="6GXhxEvcMHHpix3nZXK5-81" style="edgeStyle=orthogonalEdgeStyle;rounded=0;orthogonalLoop=1;jettySize=auto;html=1;exitX=0.5;exitY=1;exitDx=0;exitDy=0;entryX=-0.034;entryY=-0.068;entryDx=0;entryDy=0;entryPerimeter=0;dashed=1;" edge="1" parent="1" source="6GXhxEvcMHHpix3nZXK5-66" target="6GXhxEvcMHHpix3nZXK5-35">
          <mxGeometry relative="1" as="geometry">
            <Array as="points">
              <mxPoint x="740" y="880" />
              <mxPoint x="1130" y="880" />
              <mxPoint x="1130" y="298" />
            </Array>
          </mxGeometry>
        </mxCell>
        <mxCell id="6GXhxEvcMHHpix3nZXK5-83" style="edgeStyle=orthogonalEdgeStyle;rounded=0;orthogonalLoop=1;jettySize=auto;html=1;exitX=0.75;exitY=1;exitDx=0;exitDy=0;entryX=0.554;entryY=1.06;entryDx=0;entryDy=0;entryPerimeter=0;dashed=1;" edge="1" parent="1" source="6GXhxEvcMHHpix3nZXK5-66" target="6GXhxEvcMHHpix3nZXK5-47">
          <mxGeometry relative="1" as="geometry">
            <Array as="points">
              <mxPoint x="770" y="880" />
              <mxPoint x="1221" y="880" />
              <mxPoint x="1221" y="652" />
            </Array>
          </mxGeometry>
        </mxCell>
      </root>
    </mxGraphModel>
  </diagram>
</mxfile>
